<svg xmlns="http://www.w3.org/2000/svg" xmlns:xlink="http://www.w3.org/1999/xlink" width="718pt" height="373pt" viewBox="0 0 718 373"><g id="graph0" class="graph" transform="scale(1 1) rotate(0) translate(4 369)"><polygon fill="#fff" stroke="transparent" points="-4 4 -4 -369 714 -369 714 4 -4 4"/><g id="node1" class="node"><title>lab.Device</title><polygon fill="#000" fill-opacity=".125" stroke="transparent" points="177.5 -294 78.5 -294 78.5 -259 177.5 -259 177.5 -294"/><text x="104.5" y="-275" font-family="arial" font-size="10" text-anchor="start" text-decoration="underline">lab.Device</text></g><g id="node2" class="node"><title>model.VideoRecording</title><g id="a_node2"><a xlink:title="→ session.Sessionrecording_id ------------------------------→ lab.Device"><polygon fill="#0f0" fill-opacity=".188" stroke="#0f0" stroke-opacity=".188" points="257.5 -223 118.5 -223 118.5 -188 257.5 -188 257.5 -223"/><text x="126.5" y="-203.4" fill="#006400" font-family="arial" font-size="12" text-anchor="start" text-decoration="underline">model.VideoRecording</text></a></g></g><g id="edge1" class="edge"><title>lab.Device-&gt;model.VideoRecording</title><path fill="none" stroke="#000" stroke-dasharray="5 2" stroke-opacity=".251" stroke-width=".75" d="M142.52,-258.8C151.96,-247.95 164.2,-233.87 173.61,-223.05"/></g><g id="node3" class="node"><title>model.PoseEstimationTask</title><g id="a_node3"><a xlink:title="→ model.VideoRecording→ model.Model------------------------------task_mode=&quot;load&quot; pose_estimation_output_dir=&quot;&quot; pose_estimation_params=null"><polygon fill="#0f0" fill-opacity=".188" stroke="#0f0" stroke-opacity=".188" points="377.5 -152 216.5 -152 216.5 -117 377.5 -117 377.5 -152"/><text x="297" y="-131.4" fill="#006400" font-family="arial" font-size="12" text-anchor="middle">model.PoseEstimationTask</text></a></g></g><g id="edge2" class="edge"><title>model.VideoRecording-&gt;model.PoseEstimationTask</title><path fill="none" stroke="#000" stroke-opacity=".251" stroke-width=".75" d="M214.11,-187.97C231.24,-177.13 253.56,-163 270.73,-152.13"/></g><g id="node4" class="node"><title>model.RecordingInfo</title><g id="a_node4"><a xlink:title="→ model.VideoRecording------------------------------px_height px_width nframes fps=null recording_datetime=null recording_duration=null"><ellipse cx="80" cy="-134.5" fill="#00007f" fill-opacity=".251" stroke="#00007f" stroke-opacity=".251" rx="80" ry="17.5"/><text x="80" y="-131.4" fill="#00007f" fill-opacity=".627" font-family="arial" font-size="12" text-anchor="middle">model.RecordingInfo</text></a></g></g><g id="edge3" class="edge"><title>model.VideoRecording-&gt;model.RecordingInfo</title><path fill="none" stroke="#000" stroke-opacity=".251" stroke-width="2" d="M162.13,-187.97C144.66,-176.81 121.73,-162.16 104.54,-151.18"/></g><g id="node5" class="node"><title>model.VideoRecording.File</title><g id="a_node5"><a xlink:title="→ model.VideoRecordingfile_id ------------------------------file_path"><polygon fill="transparent" stroke="transparent" points="255 -77.5 121 -77.5 121 -58.5 255 -58.5 255 -77.5"/><text x="129" y="-66.5" font-family="arial" font-size="10" text-anchor="start" text-decoration="underline">model.VideoRecording.File</text></a></g></g><g id="edge4" class="edge"><title>model.VideoRecording-&gt;model.VideoRecording.File</title><path fill="none" stroke="#000" stroke-opacity=".251" stroke-width=".75" d="M188,-187.89C188,-158.77 188,-99.53 188,-77.5"/></g><g id="node10" class="node"><title>model.PoseEstimation</title><g id="a_node10"><a xlink:title="→ model.PoseEstimationTask------------------------------post_estimation_time"><ellipse cx="430" cy="-68" fill="red" fill-opacity=".125" stroke="red" stroke-opacity=".125" rx="68.5" ry="13"/><text x="430" y="-64.9" fill="#7f0000" fill-opacity=".627" font-family="arial" font-size="12" text-anchor="middle">model.PoseEstimation</text></a></g></g><g id="edge9" class="edge"><title>model.PoseEstimationTask-&gt;model.PoseEstimation</title><path fill="none" stroke="#000" stroke-opacity=".251" stroke-width="2" d="M331.25,-116.89C354.96,-105.39 385.88,-90.4 406.75,-80.27"/></g><g id="node6" class="node"><title>model.Model</title><g id="a_node6"><a xlink:title="model_name ------------------------------task date iteration snapshotindex shuffle trainingsetindex scorer config_template project_path model_prefix=&quot;&quot; model_description=&quot;&quot; → [nullable] train.TrainingParamSetUNIQUE INDEX (task, date, iteration, shuffle, snapshotindex, trainingsetindex)"><polygon fill="#0f0" fill-opacity=".188" stroke="#0f0" stroke-opacity=".188" points="606 -223 520 -223 520 -188 606 -188 606 -223"/><text x="528" y="-203.4" fill="#006400" font-family="arial" font-size="12" text-anchor="start" text-decoration="underline">model.Model</text></a></g></g><g id="edge7" class="edge"><title>model.Model-&gt;model.PoseEstimationTask</title><path fill="none" stroke="#000" stroke-opacity=".251" stroke-width=".75" d="M519.97,-193.34C476.88,-182.16 410.09,-164.84 360.84,-152.06"/></g><g id="node7" class="node"><title>model.ModelEvaluation</title><g id="a_node7"><a xlink:title="→ model.Model------------------------------train_iterations train_error=null test_error=null p_cutoff=null train_error_p=null test_error_p=null"><ellipse cx="467" cy="-134.5" fill="red" fill-opacity=".125" stroke="red" stroke-opacity=".125" rx="71.5" ry="13"/><text x="467" y="-131.4" fill="#7f0000" fill-opacity=".627" font-family="arial" font-size="12" text-anchor="middle">model.ModelEvaluation</text></a></g></g><g id="edge5" class="edge"><title>model.Model-&gt;model.ModelEvaluation</title><path fill="none" stroke="#000" stroke-opacity=".251" stroke-width="2" d="M539.76,-187.8C522.34,-175.27 498.92,-158.44 483.41,-147.3"/></g><g id="node8" class="node"><title>model.Model.BodyPart</title><g id="a_node8"><a xlink:title="→ model.Model→ model.BodyPart"><polygon fill="transparent" stroke="transparent" points="673 -144 557 -144 557 -125 673 -125 673 -144"/><text x="615" y="-132" font-family="arial" font-size="10" text-anchor="middle">model.Model.BodyPart</text></a></g></g><g id="edge6" class="edge"><title>model.Model-&gt;model.Model.BodyPart</title><path fill="none" stroke="#000" stroke-opacity=".251" stroke-width=".75" d="M575.59,-187.8C585.93,-174.08 600.16,-155.19 608.39,-144.27"/></g><g id="node9" class="node"><title>model.PoseEstimation.BodyPartPosition</title><g id="a_node9"><a xlink:title="→ model.PoseEstimation→ model.Model.BodyPart------------------------------frame_index x_pos y_pos z_pos=null likelihood"><polygon fill="transparent" stroke="transparent" points="527 -19 333 -19 333 0 527 0 527 -19"/><text x="430" y="-7" font-family="arial" font-size="10" text-anchor="middle">model.PoseEstimation.BodyPartPosition</text></a></g></g><g id="edge8" class="edge"><title>model.Model.BodyPart-&gt;model.PoseEstimation.BodyPartPosition</title><path fill="none" stroke="#000" stroke-opacity=".251" stroke-width=".75" d="M604.05,-124.82C585.01,-109.86 544.33,-78.58 508,-55 487.21,-41.5 462.15,-27.61 446.15,-19.01"/></g><g id="edge12" class="edge"><title>model.PoseEstimation-&gt;model.PoseEstimation.BodyPartPosition</title><path fill="none" stroke="#000" stroke-opacity=".251" stroke-width=".75" d="M430,-54.74C430,-43.97 430,-28.56 430,-19.06"/></g><g id="node11" class="node"><title>session.Session</title><g id="a_node11"><a xlink:title="→ subject.Subjectsession_datetime"><polygon fill="#0f0" fill-opacity=".188" stroke="#0f0" stroke-opacity=".188" points="300 -294 196 -294 196 -259 300 -259 300 -294"/><text x="204" y="-274.4" fill="#006400" font-family="arial" font-size="12" text-anchor="start" text-decoration="underline">session.Session</text></a></g></g><g id="edge10" class="edge"><title>session.Session-&gt;model.VideoRecording</title><path fill="none" stroke="#000" stroke-opacity=".251" stroke-width=".75" d="M233.48,-258.8C224.04,-247.95 211.8,-233.87 202.39,-223.05"/></g><g id="node12" class="node"><title>subject.Subject</title><g id="a_node12"><a xlink:title="subject ------------------------------sex subject_birth_date subject_description=&quot;&quot;"><polygon fill="#0f0" fill-opacity=".188" stroke="#0f0" stroke-opacity=".188" points="297 -365 199 -365 199 -330 297 -330 297 -365"/><text x="207" y="-345.4" fill="#006400" font-family="arial" font-size="12" text-anchor="start" text-decoration="underline">subject.Subject</text></a></g></g><g id="edge11" class="edge"><title>subject.Subject-&gt;session.Session</title><path fill="none" stroke="#000" stroke-opacity=".251" stroke-width=".75" d="M248,-329.8C248,-318.95 248,-304.87 248,-294.05"/></g><g id="node13" class="node"><title>train.TrainingParamSet</title><g id="a_node13"><a xlink:title="paramset_idx ------------------------------paramset_desc param_set_hash params UNIQUE INDEX (param_set_hash)"><polygon fill="#000" fill-opacity=".125" stroke="transparent" points="621 -294 505 -294 505 -259 621 -259 621 -294"/><text x="513" y="-275" font-family="arial" font-size="10" text-anchor="start" text-decoration="underline">train.TrainingParamSet</text></a></g></g><g id="edge13" class="edge"><title>train.TrainingParamSet-&gt;model.Model</title><path fill="none" stroke="#000" stroke-dasharray="5 2" stroke-opacity=".251" stroke-width=".75" d="M563,-258.8C563,-247.95 563,-233.87 563,-223.05"/></g><g id="node14" class="node"><title>model.BodyPart</title><g id="a_node14"><a xlink:title="body_part ------------------------------body_part_description=&quot;&quot;"><polygon fill="#000" fill-opacity=".125" stroke="transparent" points="710 -223 624 -223 624 -188 710 -188 710 -223"/><text x="632" y="-204" font-family="arial" font-size="10" text-anchor="start" text-decoration="underline">model.BodyPart</text></a></g></g><g id="edge14" class="edge"><title>model.BodyPart-&gt;model.Model.BodyPart</title><path fill="none" stroke="#000" stroke-opacity=".251" stroke-width=".75" d="M654.41,-187.8C644.07,-174.08 629.84,-155.19 621.61,-144.27"/></g></g></svg>