<svg xmlns="http://www.w3.org/2000/svg" xmlns:xlink="http://www.w3.org/1999/xlink" width="238pt" height="176pt" viewBox="0 0 238 176"><g id="graph0" class="graph" transform="scale(1 1) rotate(0) translate(4 172)"><polygon fill="#fff" stroke="transparent" points="-4 4 -4 -172 234 -172 234 4 -4 4"/><g id="node1" class="node"><title>train.TrainingParamSet</title><g id="a_node1"><a xlink:title="paramset_idx ------------------------------paramset_desc param_set_hash params UNIQUE INDEX (param_set_hash)"><polygon fill="#000" fill-opacity=".125" stroke="transparent" points="117.5 -168 1.5 -168 1.5 -133 117.5 -133 117.5 -168"/><text x="9.5" y="-149" font-family="arial" font-size="10" text-anchor="start" text-decoration="underline">train.TrainingParamSet</text></a></g></g><g id="node2" class="node"><title>train.TrainingTask</title><g id="a_node2"><a xlink:title="→ train.VideoSet→ train.TrainingParamSettraining_id ------------------------------model_prefix=&quot;&quot; project_path=&quot;&quot;"><polygon fill="#0f0" fill-opacity=".188" stroke="#0f0" stroke-opacity=".188" points="115 -97 4 -97 4 -62 115 -62 115 -97"/><text x="12" y="-77.4" fill="#006400" font-family="arial" font-size="12" text-anchor="start" text-decoration="underline">train.TrainingTask</text></a></g></g><g id="edge1" class="edge"><title>train.TrainingParamSet-&gt;train.TrainingTask</title><path fill="none" stroke="#000" stroke-opacity=".251" stroke-width=".75" d="M59.5,-132.8C59.5,-121.95 59.5,-107.87 59.5,-97.05"/></g><g id="node3" class="node"><title>train.ModelTraining</title><g id="a_node3"><a xlink:title="→ train.TrainingTask------------------------------latest_snapshot config_template"><ellipse cx="59.5" cy="-13" fill="red" fill-opacity=".125" stroke="red" stroke-opacity=".125" rx="59.5" ry="13"/><text x="59.5" y="-9.9" fill="#7f0000" fill-opacity=".627" font-family="arial" font-size="12" text-anchor="middle">train.ModelTraining</text></a></g></g><g id="edge2" class="edge"><title>train.TrainingTask-&gt;train.ModelTraining</title><path fill="none" stroke="#000" stroke-opacity=".251" stroke-width="2" d="M59.5,-61.89C59.5,-50.69 59.5,-36.17 59.5,-26.07"/></g><g id="node4" class="node"><title>train.VideoSet.File</title><g id="a_node4"><a xlink:title="→ train.VideoSetfile_path"><polygon fill="transparent" stroke="transparent" points="230 -89 133 -89 133 -70 230 -70 230 -89"/><text x="141" y="-78" font-family="arial" font-size="10" text-anchor="start" text-decoration="underline">train.VideoSet.File</text></a></g></g><g id="node5" class="node"><title>train.VideoSet</title><g id="a_node5"><a xlink:title="video_set_id"><polygon fill="#0f0" fill-opacity=".188" stroke="#0f0" stroke-opacity=".188" points="227.5 -168 135.5 -168 135.5 -133 227.5 -133 227.5 -168"/><text x="143.5" y="-148.4" fill="#006400" font-family="arial" font-size="12" text-anchor="start" text-decoration="underline">train.VideoSet</text></a></g></g><g id="edge3" class="edge"><title>train.VideoSet-&gt;train.TrainingTask</title><path fill="none" stroke="#000" stroke-opacity=".251" stroke-width=".75" d="M152.28,-132.97C133.1,-122.13 108.12,-108 88.91,-97.13"/></g><g id="edge4" class="edge"><title>train.VideoSet-&gt;train.VideoSet.File</title><path fill="none" stroke="#000" stroke-opacity=".251" stroke-width=".75" d="M181.5,-132.8C181.5,-119.08 181.5,-100.19 181.5,-89.27"/></g></g></svg>